<svg height="63.1" viewBox="0 0 269.3 63.1" width="269.3" xmlns="http://www.w3.org/2000/svg"><g transform="translate(-1 -.8)"><path d="m33.3 54.1v-3.6h-.3c-2.9 0-3.8-.8-3.8-3.6v-15.8c0-.6 1.2-.6 1.6 0l11.4 18.3c.2.2.7 1.1 1.3.1s8.6-13.7 11.5-18.4c.5-.6 1.6-.6 1.6 0v15.8c0 2.8-.8 3.6-3.8 3.6h-.3v3.4a96.6 96.6 0 0 1 18 3v-6.4h-.3c-2.8 0-3.7-.8-3.7-3.6v-21.8c0-2.8.8-3.6 3.7-3.6h.3v-5.4h-16.6s-8.3 14.8-10.6 18.7a.4.4 0 0 1 -.8 0l-10.5-18.7h-16.7v5.4h.3c2.9 0 3.7.8 3.7 3.6v21.8c0 2.8-.9 3.6-3.7 3.6h-.3v6.8a105.6 105.6 0 0 1 17.9-3.2z" fill="#fff"/><path d="m85.1 62.7a59.3 59.3 0 0 0 -14.6-5.8 96.6 96.6 0 0 0 -18-3c-3-.2-6-.3-9.1-.3s-6.8.2-10.2.5a105.6 105.6 0 0 0 -17.9 3.2 59.2 59.2 0 0 0 -14.1 5.8c-.2.1-.3.4-.2.5a.5.5 0 0 0 .5.3 196 196 0 0 1 42-4.2 225.6 225.6 0 0 1 41.3 3.7.4.4 0 0 0 .5-.2c0-.2 0-.4-.2-.5z" fill="#ecaa20"/><path d="m47.2 8.9-.2.2c0 2-3.1 6.8-3.1 6.9l-2.6 4.6c-2.4 3.8-1 6.8 1.4 10.7h.2l6.8-11.6c2.1-3.7.2-6.7-1.6-9.7l-.6-1h-.3z" fill="#ecaa20"/><path d="m42.7.8h-.1l-6.8 11.7c-2 3.7-.1 6.7 1.7 9.7l.6 1h.2l.2-.2c0-2 3.1-6.8 3.2-6.9l2.6-4.6c2.3-3.8.9-6.8-1.4-10.7z" fill="#edd57c"/><g fill="#fff"><path d="m148.2 27.2c0 7.3-4.4 11.5-11.9 11.5s-11.8-4.2-11.8-11.5 4.4-11.5 11.8-11.5 11.9 4.1 11.9 11.5zm-18.2-.1c0 5.8 2.3 8.8 6.3 8.8s6.3-3 6.3-8.8-2.2-8.7-6.3-8.7-6.3 3-6.3 8.7z"/><path d="m157.5 16.2 8.2 16.2a.6.6 0 0 0 .6.3.4.4 0 0 0 .3-.4v-11.4c0-2-.5-2.8-2.5-2.8h-.4v-1.9h9.9v1.9h-.4c-2 0-2.5.8-2.5 2.8v17.3h-6.5l-8.3-15.5a.5.5 0 0 0 -.5-.2c-.3 0-.4.4-.4.4l.2 10.6c0 1.9.4 2.8 2.4 2.8h.5v1.9h-10.1v-1.9h.5c2 0 2.5-.9 2.5-2.8v-12.6c0-2-.5-2.8-2.5-2.8h-.5v-1.9z"/><path d="m181.9 16.2h13.9v6.6h-2.6v-.6c0-2.8-.8-3.4-3.7-3.4h-1.7v14.7c0 1.9.5 2.8 2.5 2.8h.8v1.9h-11.7v-1.9h.8c1.9 0 2.4-.9 2.4-2.8v-14.7h-2c-2.6 0-3.5.7-3.5 3.1v.9h-2.4v-6.6z"/><path d="m239.8 16.2h-4.9v1.9h.4c2 0 2.5.8 2.5 2.8v11.4a.4.4 0 0 1 -.3.4.6.6 0 0 1 -.6-.3l-8.1-16.2h-9.6v1.9h.5c2 0 2.5.8 2.5 2.8v12.6c0 1.9-.5 2.8-2.5 2.8-1.9-.2-2.4-1.4-3.2-3.5l-6.9-16.6h-6.3l-7.1 16.7c-.9 2.2-1.7 3.3-3.2 3.4v1.9h10.3v-1.9c-2.1-.1-2.8-.3-2.8-1.6a5 5 0 0 1 .2-1.2l.8-2.3h9l.8 1.8a8.6 8.6 0 0 1 .3 1.7c0 1.2-.8 1.5-2.9 1.6v1.9h20.5v-1.9h-.4c-2 0-2.5-.9-2.5-2.8v-10.6a.4.4 0 0 1 .4-.4.5.5 0 0 1 .5.2l8.2 15.5h6.5v-17.3c0-2 .5-2.8 2.5-2.8h.4v-1.9zm-37.1 12.3 3.2-8.5a.4.4 0 0 1 .8 0l3 8.5z"/><path d="m260.1 16.2 6.8 16.6c.8 2.1 1.4 3.3 3.2 3.5v1.9h-11v-1.9c2.1-.1 3-.4 3-1.6a5.4 5.4 0 0 0 -.4-1.7l-.7-1.8h-9l-.8 2.3a2.7 2.7 0 0 0 -.3 1.2c0 1.3.8 1.5 2.8 1.6v1.9h-10.3v-1.9c1.5-.1 2.3-1.2 3.2-3.4l7.2-16.7zm-3.9 3.8-3.2 8.5h7l-3-8.5a.4.4 0 0 0 -.8 0z"/><path d="m109 34.8c-.3 0-.5-.4-.5-.4l-6.5-11s-.3-.5-.6-.5-.4.5-.4.5v10.1c0 2 .5 2.8 2.5 2.8h.5v1.9h-10.1v-1.9h.4c2 0 2.5-.8 2.5-2.8l.2-12.6v-.2c0-1.8-.6-2.6-2.5-2.6h-.4v-1.9h9.6l4.9 10.2a.4.4 0 0 0 .4.2c.4 0 .4-.2.4-.2l5.3-10.2h9.4v1.9h-.5c-1.9 0-2.5.7-2.5 2.6v.2l.3 12.6c0 1.9.4 2.8 2.4 2.8h.5v1.9h-10.2v-1.9h.5c2 0 2.5-.9 2.5-2.8v-10.2s0-.5-.4-.5-.6.5-.6.5l-6.5 11.1a.7.7 0 0 1 -.6.4z"/><path d="m122.1 44 3.7 9.1c.5 1.1.8 1.8 1.8 1.9v1h-6v-1c1.2-.1 1.6-.3 1.6-.9a1.8 1.8 0 0 0 -.2-.9l-.4-1.3h-4.7l-.6 1.5a2 2 0 0 0 -.1.7c0 .7.4.8 1.5.9v1h-5.4v-1c.7-.1 1.1-.7 1.6-1.9l3.8-9.1zm-2 2.1-1.7 4.4h3.6l-1.5-4.4s0-.1-.2-.1-.2.1-.2.1z"/><path d="m102.8 47.5h-1.4v-.3c0-1.5-.9-2.2-2.7-2.2s-2.4.7-2.4 1.8.5 1.3 1.6 1.7l2.6 1c1.8.6 2.7 1.7 2.7 3.1s-1.8 3.6-5.1 3.6a24.9 24.9 0 0 1 -4.6-.5v-3.4h1.5v.3c0 1.5 1 2.3 2.9 2.3s2.4-.7 2.4-1.8-.4-1.3-1.4-1.7l-2.5-1c-2-.8-3-1.7-3-3.2s1.8-3.5 5.1-3.5a17.1 17.1 0 0 1 4.3.6z"/><path d="m238.5 47.8h-1.4v-.4c0-1.5-.9-2.1-2.6-2.1s-2.4.7-2.4 1.7.5 1.3 1.6 1.7l2.5.9c1.8.7 2.7 1.7 2.7 3.1s-1.8 3.5-5.1 3.5a17 17 0 0 1 -4.4-.5v-3.3h1.4v.3c0 1.5 1 2.3 2.9 2.3s2.3-.7 2.3-1.8-.4-1.2-1.4-1.6l-2.4-1c-1.9-.8-2.9-1.7-2.9-3.2s1.7-3.4 4.9-3.4a22.7 22.7 0 0 1 4.3.5z"/><path d="m107.4 44.2h7.5v3.3h-1.4c0-1.5-.4-1.8-2-1.8h-.9v7.8c0 1.1.3 1.6 1.3 1.6h.3v1h-6.1v-1.1h.4c1.1 0 1.3-.5 1.3-1.6v-7.8h-1.1c-1.4 0-1.8.3-1.8 1.6v.3h-1.3v-3.3z"/><path d="m129.8 44.2h7.5v3.4h-1.4v-.2c0-1.5-.5-1.8-2-1.8h-.9v7.8c0 1.1.3 1.6 1.3 1.6h.5v1h-6.1v-1h.2c1 0 1.3-.5 1.3-1.6v-7.8h-1.1c-1.4 0-1.9.3-1.9 1.6s0 .3.1.4h-1.3v-3.4z"/><path d="m148.2 44.2v3.3h-1.2v-.6c0-1.1-.7-1.3-2.2-1.3h-2.6v3.7h.7c1.4 0 1.8-.3 1.8-1.6h1.1v4.3h-1.1c-.1-1.3-.4-1.5-1.7-1.5h-.8v4.1h2.3c2.1 0 2.6-.3 2.6-2.3h1.2v3.7h-10.4v-1h.2c1.1 0 1.4-.5 1.4-1.6v-6.7c0-1.1-.3-1.5-1.4-1.5h-.2v-1z"/><path d="m158.2 44.2h2.7v1h-.2c-1.1 0-1.4.4-1.4 1.5v5.2c0 1.8.7 2.7 2.6 2.7s2.7-.9 2.7-2.8v-5.1c0-1.1-.3-1.5-1.3-1.5h-.3v-1h5.1v1h-.3c-.7 0-1 .5-1 1.5v5c0 3.1-1.4 4.6-5.1 4.6s-5.1-1.4-5.1-4.2v-5.4c0-1-.1-1.5-1-1.5h-.2v-1z"/><path d="m186.9 44.2h3v1h-.3c-1.1 0-1.3.4-1.3 1.5v6.7c0 1.1.2 1.6 1.3 1.6h.3v1h-6v-1h.3c1 0 1.3-.5 1.3-1.6v-6.7c0-1.1-.3-1.5-1.3-1.5h-.3v-1z"/><path d="m203.7 44.2h-5.2v1.1c1 0 1.5.1 1.5.6a.7.7 0 0 1 -.1.5l-2.4 6.9s-.1.2-.2.2a.4.4 0 0 1 -.3-.2l-2.5-6.9a1.1 1.1 0 0 1 -.1-.5c0-.5.4-.6 1.4-.6v-1.2h-5.3v1.1c.7 0 1 .4 1.3 1.3l3.9 9.6h3l3.7-9.7a1.5 1.5 0 0 1 1.3-1.2z"/><path d="m221.7 44.2c3.6 0 5.3.8 5.3 3.1a2.7 2.7 0 0 1 -2.2 2.8c1.1.1 1.4.7 1.8 1.9a6.5 6.5 0 0 0 .8 2.5 1.3 1.3 0 0 0 .9.4v1.1h-3.3c-.7-1.7-.8-3.1-1.2-4.2s-.9-1-2-1h-1v2.6c0 1.1.2 1.6 1.3 1.6h.3v1h-6v-1h.3c1 0 1.3-.5 1.3-1.6v-6.7c0-1.1-.3-1.5-1.3-1.5h-.3v-1zm-.9 5.3h.9c1.8 0 2.6-.5 2.6-1.9s-.7-2-2.5-2h-1z"/><path d="m242.9 44.2h3v1h-.3c-1 0-1.3.4-1.3 1.5v6.7c0 1.1.3 1.6 1.3 1.6h.3v1h-6v-1h.3c1 0 1.3-.5 1.3-1.6v-6.7c0-1.1-.3-1.5-1.3-1.5h-.3v-1z"/><path d="m250.5 44.2h7.4v3.3h-1.3c0-1.5-.5-1.8-2-1.8h-.9v7.8c0 1.1.3 1.6 1.3 1.6h.4v1h-6.3v-1.1h.5c1 0 1.3-.5 1.3-1.6v-7.8h-1.1c-1.4 0-1.9.3-1.9 1.6v.3h-1.3v-3.3z"/><path d="m260.9 44.2h2.7v1h-.1c-.7 0-.9.2-.9.5a1.9 1.9 0 0 0 .2.7l1.4 2.7h.5l1.3-2.6a1.1 1.1 0 0 0 .3-.7c0-.4-.4-.6-1.1-.6v-1h5.1v1h-.1c-.7 0-1 .4-1.6 1.3l-3.1 4.7v2.4c0 1 .2 1.4 1.4 1.4h.3v1h-6v-1h.3c1.2 0 1.4-.4 1.4-1.4v-2.5l-2.9-4.6c-.5-.8-.9-1.3-1.7-1.3v-1z"/><path d="m174.1 44.2 4.4 8.8a.2.2 0 0 0 .3.1.2.2 0 0 0 .2-.2v-6.2c0-1-.2-1.5-1.3-1.5h-.3v-1h5.4v1h-.2c-1.1 0-1.3.5-1.3 1.5v9.4h-3.6l-4.4-8.8a.2.2 0 0 0 -.3-.1.2.2 0 0 0 -.2.2v6.1c0 1.1.2 1.6 1.3 1.6h.2v1h-5.4v-1h.3c1.1 0 1.3-.5 1.3-1.6v-6.8c0-1-.2-1.5-1.3-1.5h-.3v-1z"/><path d="m214.6 44.2v3.3h-1.2v-.6c0-1.1-.7-1.3-2.2-1.3h-2.6v3.7h.8c1.3 0 1.7-.3 1.7-1.6h1.1v4.3h-1.1c-.1-1.3-.4-1.5-1.7-1.5h-.8v4.1h2.3c2.1 0 2.6-.3 2.6-2.3h1.2v3.7h-10.4v-1h.2c1.2 0 1.4-.5 1.4-1.6v-6.7c0-1.1-.3-1.5-1.4-1.5h-.2v-1z"/></g></g></svg>