<svg xmlns="http://www.w3.org/2000/svg" width="269.3px" height="63.1px" viewBox="0 0 269.3 63.1"><defs><style>.a{fill:#fff;}.b{fill:#ecaa20;}.c{fill:#edd57c;}</style></defs><title>Montana State University</title><path class="a" d="M33.3,54.1V50.5H33c-2.9,0-3.8-.8-3.8-3.6V31.1c0-.6,1.2-.6,1.6,0L42.2,49.4c.2.2.7,1.1,1.3.1S52.1,35.8,55,31.1c.5-.6,1.6-.6,1.6,0V46.9c0,2.8-.8,3.6-3.8,3.6h-.3v3.4a96.6,96.6,0,0,1,18,3V50.5h-.3c-2.8,0-3.7-.8-3.7-3.6V25.1c0-2.8.8-3.6,3.7-3.6h.3V16.1H53.9S45.6,30.9,43.3,34.8a.4.4,0,0,1-.8,0L32,16.1H15.3v5.4h.3c2.9,0,3.7.8,3.7,3.6V46.9c0,2.8-.9,3.6-3.7,3.6h-.3v6.8a105.6,105.6,0,0,1,17.9-3.2Z" transform="translate(-1 -0.8)"/><path class="b" d="M85.1,62.7a59.3,59.3,0,0,0-14.6-5.8,96.6,96.6,0,0,0-18-3c-3-.2-6-.3-9.1-.3s-6.8.2-10.2.5a105.6,105.6,0,0,0-17.9,3.2A59.2,59.2,0,0,0,1.2,63.1c-.2.1-.3.4-.2.5a.5.5,0,0,0,.5.3,196,196,0,0,1,42-4.2,225.6,225.6,0,0,1,41.3,3.7.4.4,0,0,0,.5-.2C85.3,63,85.3,62.8,85.1,62.7Z" transform="translate(-1 -0.8)"/><path class="b" d="M47.2,8.9l-.2.2h0c0,2-3.1,6.8-3.1,6.9l-2.6,4.6c-2.4,3.8-1,6.8,1.4,10.7h.2l6.8-11.6c2.1-3.7.2-6.7-1.6-9.7l-.6-1h-.3Zm.2.2Z" transform="translate(-1 -0.8)"/><path class="c" d="M42.7.8h-.1L35.8,12.5c-2,3.7-.1,6.7,1.7,9.7l.6,1h.2l.2-.2h0c0-2,3.1-6.8,3.2-6.9l2.6-4.6c2.3-3.8.9-6.8-1.4-10.7ZM38.2,23.1Z" transform="translate(-1 -0.8)"/><path class="a" d="M148.2,27.2c0,7.3-4.4,11.5-11.9,11.5s-11.8-4.2-11.8-11.5,4.4-11.5,11.8-11.5S148.2,19.8,148.2,27.2ZM130,27.1c0,5.8,2.3,8.8,6.3,8.8s6.3-3,6.3-8.8-2.2-8.7-6.3-8.7S130,21.4,130,27.1Z" transform="translate(-1 -0.8)"/><path class="a" d="M157.5,16.2l8.2,16.2a.6.6,0,0,0,.6.3.4.4,0,0,0,.3-.4V20.9c0-2-.5-2.8-2.5-2.8h-.4V16.2h9.9v1.9h-.4c-2,0-2.5.8-2.5,2.8V38.2h-6.5l-8.3-15.5a.5.5,0,0,0-.5-.2c-.3,0-.4.4-.4.4l.2,10.6c0,1.9.4,2.8,2.4,2.8h.5v1.9H148V36.3h.5c2,0,2.5-.9,2.5-2.8V20.9c0-2-.5-2.8-2.5-2.8H148V16.2Z" transform="translate(-1 -0.8)"/><path class="a" d="M181.9,16.2h13.9v6.6h-2.6v-.6c0-2.8-.8-3.4-3.7-3.4h-1.7V33.5c0,1.9.5,2.8,2.5,2.8h.8v1.9H179.4V36.3h.8c1.9,0,2.4-.9,2.4-2.8V18.8h-2c-2.6,0-3.5.7-3.5,3.1v.9h-2.4V16.2Z" transform="translate(-1 -0.8)"/><path class="a" d="M239.8,16.2h-4.9v1.9h.4c2,0,2.5.8,2.5,2.8V32.3a.4.4,0,0,1-.3.4.6.6,0,0,1-.6-.3l-8.1-16.2h-9.6v1.9h.5c2,0,2.5.8,2.5,2.8V33.5c0,1.9-.5,2.8-2.5,2.8h0c-1.9-.2-2.4-1.4-3.2-3.5l-6.9-16.6h-6.3l-7.1,16.7c-.9,2.2-1.7,3.3-3.2,3.4v1.9h10.3V36.3c-2.1-.1-2.8-.3-2.8-1.6a5,5,0,0,1,.2-1.2l.8-2.3h9l.8,1.8a8.6,8.6,0,0,1,.3,1.7c0,1.2-.8,1.5-2.9,1.6v1.9h20.5V36.3h-.4c-2,0-2.5-.9-2.5-2.8V22.9a.4.4,0,0,1,.4-.4.5.5,0,0,1,.5.2l8.2,15.5h6.5V20.9c0-2,.5-2.8,2.5-2.8h.4V16.2ZM202.7,28.5l3.2-8.5a.4.4,0,0,1,.8,0l3,8.5Z" transform="translate(-1 -0.8)"/><path class="a" d="M260.1,16.2l6.8,16.6c.8,2.1,1.4,3.3,3.2,3.5v1.9h-11V36.3c2.1-.1,3-.4,3-1.6a5.4,5.4,0,0,0-.4-1.7l-.7-1.8h-9l-.8,2.3a2.7,2.7,0,0,0-.3,1.2c0,1.3.8,1.5,2.8,1.6v1.9H243.4V36.3c1.5-.1,2.3-1.2,3.2-3.4l7.2-16.7ZM256.2,20,253,28.5h7L257,20a.4.4,0,0,0-.8,0Z" transform="translate(-1 -0.8)"/><path class="a" d="M109,34.8c-.3,0-.5-.4-.5-.4l-6.5-11s-.3-.5-.6-.5-.4.5-.4.5V33.5c0,2,.5,2.8,2.5,2.8h.5v1.9H93.9V36.3h.4c2,0,2.5-.8,2.5-2.8L97,20.9v-.2c0-1.8-.6-2.6-2.5-2.6h-.4V16.2h9.6l4.9,10.2a.4.4,0,0,0,.4.2c.4,0,.4-.2.4-.2l5.3-10.2h9.4v1.9h-.5c-1.9,0-2.5.7-2.5,2.6v.2l.3,12.6c0,1.9.4,2.8,2.4,2.8h.5v1.9H114.1V36.3h.5c2,0,2.5-.9,2.5-2.8V23.3s0-.5-.4-.5-.6.5-.6.5l-6.5,11.1A.7.7,0,0,1,109,34.8Z" transform="translate(-1 -0.8)"/><path class="a" d="M122.1,44l3.7,9.1c.5,1.1.8,1.8,1.8,1.9v1h-6V55c1.2-.1,1.6-.3,1.6-.9a1.8,1.8,0,0,0-.2-.9l-.4-1.3h-4.7l-.6,1.5a2,2,0,0,0-.1.7c0,.7.4.8,1.5.9v1h-5.4V55c.7-.1,1.1-.7,1.6-1.9l3.8-9.1Zm-2,2.1-1.7,4.4H122l-1.5-4.4s0-.1-.2-.1S120.1,46.1,120.1,46.1Z" transform="translate(-1 -0.8)"/><path class="a" d="M102.8,47.5h-1.4v-.3c0-1.5-.9-2.2-2.7-2.2s-2.4.7-2.4,1.8.5,1.3,1.6,1.7l2.6,1c1.8.6,2.7,1.7,2.7,3.1s-1.8,3.6-5.1,3.6a24.9,24.9,0,0,1-4.6-.5V52.3H95v.3c0,1.5,1,2.3,2.9,2.3s2.4-.7,2.4-1.8-.4-1.3-1.4-1.7l-2.5-1c-2-.8-3-1.7-3-3.2s1.8-3.5,5.1-3.5a17.1,17.1,0,0,1,4.3.6Z" transform="translate(-1 -0.8)"/><path class="a" d="M238.5,47.8h-1.4v-.4c0-1.5-.9-2.1-2.6-2.1s-2.4.7-2.4,1.7.5,1.3,1.6,1.7l2.5.9c1.8.7,2.7,1.7,2.7,3.1s-1.8,3.5-5.1,3.5a17,17,0,0,1-4.4-.5V52.4h1.4v.3c0,1.5,1,2.3,2.9,2.3s2.3-.7,2.3-1.8-.4-1.2-1.4-1.6l-2.4-1c-1.9-.8-2.9-1.7-2.9-3.2S231,44,234.2,44a22.7,22.7,0,0,1,4.3.5Z" transform="translate(-1 -0.8)"/><path class="a" d="M107.4,44.2h7.5v3.3h-1.4c0-1.5-.4-1.8-2-1.8h-.9v7.8c0,1.1.3,1.6,1.3,1.6h.3v1h-6.1V55h.4c1.1,0,1.3-.5,1.3-1.6V45.6h-1.1c-1.4,0-1.8.3-1.8,1.6v.3h-1.3V44.2Z" transform="translate(-1 -0.8)"/><path class="a" d="M129.8,44.2h7.5v3.4h-1.4v-.2c0-1.5-.5-1.8-2-1.8H133v7.8c0,1.1.3,1.6,1.3,1.6h.5v1h-6.1V55h.2c1,0,1.3-.5,1.3-1.6V45.6h-1.1c-1.4,0-1.9.3-1.9,1.6s0,.3.1.4H126V44.2Z" transform="translate(-1 -0.8)"/><path class="a" d="M148.2,44.2v3.3H147v-.6c0-1.1-.7-1.3-2.2-1.3h-2.6v3.7h.7c1.4,0,1.8-.3,1.8-1.6h1.1V52h-1.1c-.1-1.3-.4-1.5-1.7-1.5h-.8v4.1h2.3c2.1,0,2.6-.3,2.6-2.3h1.2V56H137.9V55h.2c1.1,0,1.4-.5,1.4-1.6V46.7c0-1.1-.3-1.5-1.4-1.5h-.2v-1Z" transform="translate(-1 -0.8)"/><path class="a" d="M158.2,44.2h2.7v1h-.2c-1.1,0-1.4.4-1.4,1.5v5.2c0,1.8.7,2.7,2.6,2.7s2.7-.9,2.7-2.8V46.7c0-1.1-.3-1.5-1.3-1.5H163v-1h5.1v1h-.3c-.7,0-1,.5-1,1.5v5c0,3.1-1.4,4.6-5.1,4.6s-5.1-1.4-5.1-4.2V46.7c0-1-.1-1.5-1-1.5h-.2v-1Z" transform="translate(-1 -0.8)"/><path class="a" d="M186.9,44.2h3v1h-.3c-1.1,0-1.3.4-1.3,1.5v6.7c0,1.1.2,1.6,1.3,1.6h.3v1h-6V55h.3c1,0,1.3-.5,1.3-1.6V46.7c0-1.1-.3-1.5-1.3-1.5h-.3v-1Z" transform="translate(-1 -0.8)"/><path class="a" d="M203.7,44.2h-5.2v1.1c1,0,1.5.1,1.5.6a.7.7,0,0,1-.1.5l-2.4,6.9s-.1.2-.2.2a.4.4,0,0,1-.3-.2l-2.5-6.9a1.1,1.1,0,0,1-.1-.5c0-.5.4-.6,1.4-.6V44.1h-5.3v1.1c.7,0,1,.4,1.3,1.3l3.9,9.6h3l3.7-9.7a1.5,1.5,0,0,1,1.3-1.2Z" transform="translate(-1 -0.8)"/><path class="a" d="M221.7,44.2c3.6,0,5.3.8,5.3,3.1a2.7,2.7,0,0,1-2.2,2.8c1.1.1,1.4.7,1.8,1.9a6.5,6.5,0,0,0,.8,2.5,1.3,1.3,0,0,0,.9.4V56H225c-.7-1.7-.8-3.1-1.2-4.2s-.9-1-2-1h-1v2.6c0,1.1.2,1.6,1.3,1.6h.3v1h-6V55h.3c1,0,1.3-.5,1.3-1.6V46.7c0-1.1-.3-1.5-1.3-1.5h-.3v-1Zm-.9,5.3h.9c1.8,0,2.6-.5,2.6-1.9s-.7-2-2.5-2h-1Z" transform="translate(-1 -0.8)"/><path class="a" d="M242.9,44.2h3v1h-.3c-1,0-1.3.4-1.3,1.5v6.7c0,1.1.3,1.6,1.3,1.6h.3v1h-6V55h.3c1,0,1.3-.5,1.3-1.6V46.7c0-1.1-.3-1.5-1.3-1.5h-.3v-1Z" transform="translate(-1 -0.8)"/><path class="a" d="M250.5,44.2h7.4v3.3h-1.3c0-1.5-.5-1.8-2-1.8h-.9v7.8c0,1.1.3,1.6,1.3,1.6h.4v1h-6.3V55h.5c1,0,1.3-.5,1.3-1.6V45.6h-1.1c-1.4,0-1.9.3-1.9,1.6v.3h-1.3V44.2Z" transform="translate(-1 -0.8)"/><path class="a" d="M260.9,44.2h2.7v1h-.1c-.7,0-.9.2-.9.5a1.9,1.9,0,0,0,.2.7l1.4,2.7h.5l1.3-2.6a1.1,1.1,0,0,0,.3-.7c0-.4-.4-.6-1.1-.6v-1h5.1v1h-.1c-.7,0-1,.4-1.6,1.3l-3.1,4.7v2.4c0,1,.2,1.4,1.4,1.4h.3v1h-6V55h.3c1.2,0,1.4-.4,1.4-1.4V51.1L260,46.5c-.5-.8-.9-1.3-1.7-1.3v-1Z" transform="translate(-1 -0.8)"/><path class="a" d="M174.1,44.2l4.4,8.8a.2.2,0,0,0,.3.1.2.2,0,0,0,.2-.2V46.7c0-1-.2-1.5-1.3-1.5h-.3v-1h5.4v1h-.2c-1.1,0-1.3.5-1.3,1.5v9.4h-3.6l-4.4-8.8a.2.2,0,0,0-.3-.1.2.2,0,0,0-.2.2v6.1c0,1.1.2,1.6,1.3,1.6h.2v1h-5.4v-1h.3c1.1,0,1.3-.5,1.3-1.6V46.7c0-1-.2-1.5-1.3-1.5h-.3v-1Z" transform="translate(-1 -0.8)"/><path class="a" d="M214.6,44.2v3.3h-1.2v-.6c0-1.1-.7-1.3-2.2-1.3h-2.6v3.7h.8c1.3,0,1.7-.3,1.7-1.6h1.1V52h-1.1c-.1-1.3-.4-1.5-1.7-1.5h-.8v4.1h2.3c2.1,0,2.6-.3,2.6-2.3h1.2V56H204.3V55h.2c1.2,0,1.4-.5,1.4-1.6V46.7c0-1.1-.3-1.5-1.4-1.5h-.2v-1Z" transform="translate(-1 -0.8)"/></svg>